<svg xmlns="http://www.w3.org/2000/svg" width="16" height="16" fill="none" viewBox="0 0 16 16"><circle cx="8" cy="8" r="8" fill="#fff"/><g clip-path="url(#clip0_334:41290)"><path fill="#5326EC" fill-opacity=".2" d="M7.99902 2L7.92041 2.28249V10.4798L7.99902 10.5628L11.598 8.31359L7.99902 2Z"/><path fill="#5326EC" d="M7.99883 2L4.3999 8.31359L7.99883 10.5628V6.58407V2Z"/><path fill="#5326EC" fill-opacity=".4" d="M7.99889 11.2833L7.95459 11.3404V14.2604L7.99889 14.3972L11.6 9.03522L7.99889 11.2833Z"/><path fill="#5326EC" d="M7.99883 14.3972V11.2832L4.3999 9.03516L7.99883 14.3972Z"/><path fill="#5326EC" d="M7.99902 10.5628L11.5979 8.31362L7.99902 6.58411V10.5628Z"/><path fill="#5326EC" fill-opacity=".2" d="M4.3999 8.31362L7.99878 10.5628V6.58411L4.3999 8.31362Z"/></g><defs><clipPath id="clip0_334:41290"><rect width="7.2" height="12.4" fill="#fff" transform="translate(4.3999 2)"/></clipPath></defs></svg>