<svg xmlns="http://www.w3.org/2000/svg" width="64" height="64" fill="none" viewBox="0 0 64 64"><circle cx="32" cy="32" r="32" fill="#fff"/><g clip-path="url(#clip0_418:44012)"><path fill="#5326EC" fill-opacity=".2" d="M31.9956 8L31.6812 9.12998V41.9193L31.9956 42.2511L46.3913 33.2544L31.9956 8Z"/><path fill="#5326EC" d="M31.9958 8L17.6001 33.2544L31.9958 42.2512V26.3363V8Z"/><path fill="#5326EC" fill-opacity=".4" d="M31.9955 45.1331L31.8184 45.3615V57.0417L31.9955 57.589L46.3998 36.1409L31.9955 45.1331Z"/><path fill="#5326EC" d="M31.9958 57.5887V45.1329L17.6001 36.1406L31.9958 57.5887Z"/><path fill="#5326EC" d="M31.9961 42.2511L46.3916 33.2544L31.9961 26.3364V42.2511Z"/><path fill="#5326EC" fill-opacity=".2" d="M17.6001 33.2545L31.9956 42.2511V26.3364L17.6001 33.2545Z"/></g><defs><clipPath id="clip0_418:44012"><rect width="28.8" height="49.6" fill="#fff" transform="translate(17.6001 8)"/></clipPath></defs></svg>