<svg xmlns="http://www.w3.org/2000/svg" width="256" height="256" fill="none" viewBox="0 0 256 256"><path fill="#FFC50F" d="M255.707 238.795L128 17.2617L0.29248 238.795H45.0683L68.2381 199.597L131.284 95.6193L191.098 198.372H107.059L86.1823 238.795H255.707Z"/><path fill="url(#paint0_linear)" d="M255.707 238.795L128 17.2617L0.29248 238.795H45.0683L68.2381 199.597L131.284 95.6193L191.098 198.372H172.906L196.558 238.795H255.707Z"/><path fill="#F57722" d="M255.707 238.795L128 17.2617L0.29248 238.795H45.0683L68.2381 199.597L131.284 95.6193L191.098 198.372L214.463 238.795H255.707Z"/><path fill="#ED0014" d="M153.385 61.2556L128 17.2617L0.29248 238.795H45.0683L68.2381 199.597L131.284 95.6193L153.385 61.2556Z"/><path fill="#F8004C" d="M102.81 61.2168L0.29248 238.795H45.0683L68.2381 199.597L131.284 95.6196L102.81 61.2168Z"/><defs><linearGradient id="paint0_linear" x1="151.769" x2="173.572" y1="142.102" y2="130.93" gradientUnits="userSpaceOnUse"><stop stop-color="#FFC50F"/><stop offset="1" stop-color="#FAAA13"/></linearGradient></defs></svg>