<svg xmlns="http://www.w3.org/2000/svg" width="32" height="32" fill="none" viewBox="0 0 32 32"><g clip-path="url(#clip0_4799_63933)"><path fill="#000" d="M32 0H0V32H32V0Z"/><path fill="url(#paint0_linear_4799_63933)" fill-rule="evenodd" d="M4.0704 26.56H8.896L13.3248 9.77917L3.8784 26.2272C3.7504 26.3552 3.8784 26.56 4.0832 26.56H4.0704Z" clip-rule="evenodd"/><path fill="url(#paint1_linear_4799_63933)" fill-rule="evenodd" d="M25.7408 22.1312L8.83203 26.56H27.9296C28.1344 26.56 28.2624 26.3552 28.1344 26.2272L25.7536 22.1312H25.7408Z" clip-rule="evenodd"/><path fill="url(#paint2_linear_4799_63933)" fill-rule="evenodd" d="M23.1679 19.5584L25.7407 22.1312L16.1023 5.54241C16.0383 5.41441 15.7695 5.41441 15.7055 5.54241L13.2607 9.76641L23.1679 19.5456V19.5584Z" clip-rule="evenodd"/><path fill="url(#paint3_linear_4799_63933)" fill-rule="evenodd" d="M12.3392 25.6256V13.3376L8.83203 26.56L12.3392 25.6256Z" clip-rule="evenodd"/><path fill="url(#paint4_linear_4799_63933)" fill-rule="evenodd" d="M12.3392 13.3376L23.168 19.5584L13.2608 9.76636L12.3392 13.3376Z" clip-rule="evenodd"/><path fill="url(#paint5_linear_4799_63933)" fill-rule="evenodd" d="M12.3392 25.6255L25.7408 22.1311L23.168 19.5583L12.3392 25.6255Z" clip-rule="evenodd"/><path fill="url(#paint6_linear_4799_63933)" fill-rule="evenodd" d="M12.3392 25.6256L14.6432 24.3072L12.3392 15.9872V25.6256Z" clip-rule="evenodd"/><path fill="url(#paint7_linear_4799_63933)" fill-rule="evenodd" d="M23.168 19.5584L20.8512 18.2272L14.6432 24.3072L23.168 19.5584Z" clip-rule="evenodd"/><path fill="url(#paint8_linear_4799_63933)" fill-rule="evenodd" d="M12.3392 13.3505V15.9873L20.9408 18.2785L12.3392 13.3505Z" clip-rule="evenodd"/><path fill="url(#paint9_linear_4799_63933)" fill-rule="evenodd" d="M12.864 17.7664H17.7536H19.072L12.3392 15.9872L12.864 17.7664Z" clip-rule="evenodd"/><path fill="url(#paint10_linear_4799_63933)" fill-rule="evenodd" d="M12.7999 17.7664L14.6431 24.3072L15.9615 23.0528L13.5167 18.8928L12.7999 17.7664Z" clip-rule="evenodd"/><path fill="url(#paint11_linear_4799_63933)" fill-rule="evenodd" d="M19.0719 17.7664L15.9615 23.0528L20.8511 18.2272L19.0719 17.7664Z" clip-rule="evenodd"/><path fill="url(#paint12_linear_4799_63933)" fill-rule="evenodd" d="M17.7535 17.7664H12.7999L13.5167 18.9568L17.7535 17.7664Z" clip-rule="evenodd"/><path fill="url(#paint13_linear_4799_63933)" fill-rule="evenodd" d="M16.6271 21.9904L13.5167 18.9568L15.9615 23.1168L16.6271 21.9904Z" clip-rule="evenodd"/><path fill="url(#paint14_linear_4799_63933)" fill-rule="evenodd" d="M19.072 17.7664H17.7536L16.6272 21.9264L19.072 17.7664Z" clip-rule="evenodd"/><path fill="url(#paint15_linear_4799_63933)" fill-rule="evenodd" d="M4.07038 26.56H8.89598L13.2608 9.76636L3.86558 26.2272C3.73758 26.3552 3.86558 26.56 4.07038 26.56Z" clip-rule="evenodd"/><path fill="url(#paint16_linear_4799_63933)" fill-rule="evenodd" d="M25.7408 22.1312L8.83203 26.56H27.9296C28.1344 26.56 28.2624 26.3552 28.1344 26.2272L25.7536 22.1312H25.7408Z" clip-rule="evenodd"/><path fill="url(#paint17_linear_4799_63933)" fill-rule="evenodd" d="M23.1679 19.5584L25.7407 22.1312L16.1023 5.54241C16.0383 5.41441 15.7695 5.41441 15.7055 5.54241L13.2607 9.76641L23.1679 19.5456V19.5584Z" clip-rule="evenodd"/><path fill="url(#paint18_linear_4799_63933)" fill-rule="evenodd" d="M12.3392 25.6256V13.3376L8.83203 26.56L12.3392 25.6256Z" clip-rule="evenodd"/><path fill="url(#paint19_linear_4799_63933)" fill-rule="evenodd" d="M12.3392 25.6255L25.7408 22.1311L23.168 19.5583L12.3392 25.6255Z" clip-rule="evenodd"/><path fill="url(#paint20_linear_4799_63933)" fill-rule="evenodd" d="M12.3392 25.6256L14.6432 24.3072L12.3392 15.9872V25.6256Z" clip-rule="evenodd"/><path fill="url(#paint21_linear_4799_63933)" fill-rule="evenodd" d="M23.168 19.5584L20.8512 18.2272L14.6432 24.3072L23.168 19.5584Z" clip-rule="evenodd"/><path fill="url(#paint22_linear_4799_63933)" fill-rule="evenodd" d="M12.7999 17.7664L14.6431 24.3072L15.9615 23.0528L13.5167 18.8928L12.7999 17.7664Z" clip-rule="evenodd"/><path fill="url(#paint23_linear_4799_63933)" fill-rule="evenodd" d="M19.0719 17.7664L15.9615 23.0528L20.8511 18.2272L19.0719 17.7664Z" clip-rule="evenodd"/><path fill="url(#paint24_linear_4799_63933)" fill-rule="evenodd" d="M16.6271 21.9904L13.5167 18.9568L15.9615 23.0528L16.6271 21.9904Z" clip-rule="evenodd"/><path fill="url(#paint25_linear_4799_63933)" fill-rule="evenodd" d="M19.072 17.7664H17.7536L16.6272 21.9264L19.072 17.7664Z" clip-rule="evenodd"/></g><defs><linearGradient id="paint0_linear_4799_63933" x1="9.444" x2="7.779" y1="26.483" y2="10.331" gradientUnits="userSpaceOnUse"><stop stop-color="#C3C4C3"/><stop offset=".09" stop-color="#D8D8D8"/><stop offset=".212" stop-color="#E9EAE9"/><stop offset=".349" stop-color="#F6F6F6"/><stop offset=".549" stop-color="#FDFDFD"/><stop offset="1" stop-color="#fff"/></linearGradient><linearGradient id="paint1_linear_4799_63933" x1="24.902" x2="24.147" y1="22.105" y2="32.026" gradientUnits="userSpaceOnUse"><stop stop-color="#C3C4C3"/><stop offset=".09" stop-color="#D8D8D8"/><stop offset=".212" stop-color="#E9EAE9"/><stop offset=".349" stop-color="#F6F6F6"/><stop offset=".549" stop-color="#FDFDFD"/><stop offset="1" stop-color="#fff"/></linearGradient><linearGradient id="paint2_linear_4799_63933" x1="13.252" x2="28.77" y1="10.329" y2="14.278" gradientUnits="userSpaceOnUse"><stop stop-color="#C3C4C3"/><stop offset=".09" stop-color="#D8D8D8"/><stop offset=".212" stop-color="#E9EAE9"/><stop offset=".349" stop-color="#F6F6F6"/><stop offset=".549" stop-color="#FDFDFD"/><stop offset="1" stop-color="#fff"/></linearGradient><linearGradient id="paint3_linear_4799_63933" x1="11.249" x2="4.453" y1="26.305" y2="21.722" gradientUnits="userSpaceOnUse"><stop stop-color="#B7B8B8"/><stop offset=".11" stop-color="#C9CACA"/><stop offset=".302" stop-color="#E1E1E1"/><stop offset=".502" stop-color="#F2F2F2"/><stop offset=".729" stop-color="#FCFCFC"/><stop offset="1" stop-color="#fff"/></linearGradient><linearGradient id="paint4_linear_4799_63933" x1="12.276" x2="24.182" y1="12.015" y2="17.322" gradientUnits="userSpaceOnUse"><stop stop-color="#B7B8B8"/><stop offset=".11" stop-color="#C9CACA"/><stop offset=".302" stop-color="#E1E1E1"/><stop offset=".502" stop-color="#F2F2F2"/><stop offset=".729" stop-color="#FCFCFC"/><stop offset="1" stop-color="#fff"/></linearGradient><linearGradient id="paint5_linear_4799_63933" x1="24.235" x2="21.503" y1="20.077" y2="29.832" gradientUnits="userSpaceOnUse"><stop stop-color="#B7B8B8"/><stop offset=".11" stop-color="#C9CACA"/><stop offset=".302" stop-color="#E1E1E1"/><stop offset=".502" stop-color="#F2F2F2"/><stop offset=".729" stop-color="#FCFCFC"/><stop offset="1" stop-color="#fff"/></linearGradient><linearGradient id="paint6_linear_4799_63933" x1="13.553" x2="9.36" y1="25.398" y2="23.706" gradientUnits="userSpaceOnUse"><stop stop-color="#B7B8B8"/><stop offset=".212" stop-color="#CECECE"/><stop offset=".522" stop-color="#E9E9E9"/><stop offset=".788" stop-color="#F9F9F9"/><stop offset="1" stop-color="#fff"/></linearGradient><linearGradient id="paint7_linear_4799_63933" x1="22.115" x2="18.227" y1="18.582" y2="26.563" gradientUnits="userSpaceOnUse"><stop stop-color="#B7B8B8"/><stop offset=".212" stop-color="#CECECE"/><stop offset=".522" stop-color="#E9E9E9"/><stop offset=".788" stop-color="#F9F9F9"/><stop offset="1" stop-color="#fff"/></linearGradient><linearGradient id="paint8_linear_4799_63933" x1="11.986" x2="21.228" y1="14.635" y2="16.977" gradientUnits="userSpaceOnUse"><stop stop-color="#B7B8B8"/><stop offset=".212" stop-color="#CECECE"/><stop offset=".522" stop-color="#E9E9E9"/><stop offset=".788" stop-color="#F9F9F9"/><stop offset="1" stop-color="#fff"/></linearGradient><linearGradient id="paint9_linear_4799_63933" x1="12.249" x2="19.11" y1="16.849" y2="17.387" gradientUnits="userSpaceOnUse"><stop stop-color="#ABACAC"/><stop offset=".18" stop-color="#BDBDBD"/><stop offset=".729" stop-color="#EDEDED"/><stop offset="1" stop-color="#fff"/></linearGradient><linearGradient id="paint10_linear_4799_63933" x1="15.431" x2="10.868" y1="23.974" y2="21.533" gradientUnits="userSpaceOnUse"><stop stop-color="#ABACAC"/><stop offset=".18" stop-color="#BDBDBD"/><stop offset=".729" stop-color="#EDEDED"/><stop offset="1" stop-color="#fff"/></linearGradient><linearGradient id="paint11_linear_4799_63933" x1="20.12" x2="15.985" y1="17.76" y2="23.049" gradientUnits="userSpaceOnUse"><stop stop-color="#ABACAC"/><stop offset=".18" stop-color="#BDBDBD"/><stop offset=".729" stop-color="#EDEDED"/><stop offset="1" stop-color="#fff"/></linearGradient><linearGradient id="paint12_linear_4799_63933" x1="13.128" x2="17.455" y1="18.574" y2="16.948" gradientUnits="userSpaceOnUse"><stop stop-color="#9FA0A0"/><stop offset=".169" stop-color="#A5A6A6"/><stop offset=".4" stop-color="#B6B6B6"/><stop offset=".659" stop-color="#D1D1D1"/><stop offset=".941" stop-color="#F6F6F6"/><stop offset="1" stop-color="#fff"/></linearGradient><linearGradient id="paint13_linear_4799_63933" x1="16.455" x2="12.986" y1="22.486" y2="19.555" gradientUnits="userSpaceOnUse"><stop stop-color="#9FA0A0"/><stop offset=".169" stop-color="#A5A6A6"/><stop offset=".4" stop-color="#B6B6B6"/><stop offset=".659" stop-color="#D1D1D1"/><stop offset=".941" stop-color="#F6F6F6"/><stop offset="1" stop-color="#fff"/></linearGradient><linearGradient id="paint14_linear_4799_63933" x1="18.227" x2="16.279" y1="17.758" y2="21.483" gradientUnits="userSpaceOnUse"><stop stop-color="#9FA0A0"/><stop offset=".169" stop-color="#A5A6A6"/><stop offset=".4" stop-color="#B6B6B6"/><stop offset=".659" stop-color="#D1D1D1"/><stop offset=".941" stop-color="#F6F6F6"/><stop offset="1" stop-color="#fff"/></linearGradient><linearGradient id="paint15_linear_4799_63933" x1="9.405" x2="7.741" y1="26.485" y2="10.331" gradientUnits="userSpaceOnUse"><stop stop-color="#C3C4C3"/><stop offset=".09" stop-color="#D8D8D8"/><stop offset=".212" stop-color="#E9EAE9"/><stop offset=".349" stop-color="#F6F6F6"/><stop offset=".549" stop-color="#FDFDFD"/><stop offset="1" stop-color="#fff"/></linearGradient><linearGradient id="paint16_linear_4799_63933" x1="24.902" x2="24.147" y1="22.105" y2="32.026" gradientUnits="userSpaceOnUse"><stop stop-color="#C3C4C3"/><stop offset=".09" stop-color="#D8D8D8"/><stop offset=".212" stop-color="#E9EAE9"/><stop offset=".349" stop-color="#F6F6F6"/><stop offset=".549" stop-color="#FDFDFD"/><stop offset="1" stop-color="#fff"/></linearGradient><linearGradient id="paint17_linear_4799_63933" x1="13.252" x2="28.77" y1="10.329" y2="14.278" gradientUnits="userSpaceOnUse"><stop stop-color="#C3C4C3"/><stop offset=".09" stop-color="#D8D8D8"/><stop offset=".212" stop-color="#E9EAE9"/><stop offset=".349" stop-color="#F6F6F6"/><stop offset=".549" stop-color="#FDFDFD"/><stop offset="1" stop-color="#fff"/></linearGradient><linearGradient id="paint18_linear_4799_63933" x1="11.249" x2="4.453" y1="26.305" y2="21.722" gradientUnits="userSpaceOnUse"><stop stop-color="#B7B8B8"/><stop offset=".11" stop-color="#C9CACA"/><stop offset=".302" stop-color="#E1E1E1"/><stop offset=".502" stop-color="#F2F2F2"/><stop offset=".729" stop-color="#FCFCFC"/><stop offset="1" stop-color="#fff"/></linearGradient><linearGradient id="paint19_linear_4799_63933" x1="24.235" x2="21.503" y1="20.077" y2="29.832" gradientUnits="userSpaceOnUse"><stop stop-color="#B7B8B8"/><stop offset=".11" stop-color="#C9CACA"/><stop offset=".302" stop-color="#E1E1E1"/><stop offset=".502" stop-color="#F2F2F2"/><stop offset=".729" stop-color="#FCFCFC"/><stop offset="1" stop-color="#fff"/></linearGradient><linearGradient id="paint20_linear_4799_63933" x1="13.553" x2="9.36" y1="25.398" y2="23.706" gradientUnits="userSpaceOnUse"><stop stop-color="#B7B8B8"/><stop offset=".212" stop-color="#CECECE"/><stop offset=".522" stop-color="#E9E9E9"/><stop offset=".788" stop-color="#F9F9F9"/><stop offset="1" stop-color="#fff"/></linearGradient><linearGradient id="paint21_linear_4799_63933" x1="22.115" x2="18.227" y1="18.582" y2="26.563" gradientUnits="userSpaceOnUse"><stop stop-color="#B7B8B8"/><stop offset=".212" stop-color="#CECECE"/><stop offset=".522" stop-color="#E9E9E9"/><stop offset=".788" stop-color="#F9F9F9"/><stop offset="1" stop-color="#fff"/></linearGradient><linearGradient id="paint22_linear_4799_63933" x1="15.431" x2="10.868" y1="23.974" y2="21.533" gradientUnits="userSpaceOnUse"><stop stop-color="#ABACAC"/><stop offset=".18" stop-color="#BDBDBD"/><stop offset=".729" stop-color="#EDEDED"/><stop offset="1" stop-color="#fff"/></linearGradient><linearGradient id="paint23_linear_4799_63933" x1="20.12" x2="15.985" y1="17.76" y2="23.049" gradientUnits="userSpaceOnUse"><stop stop-color="#ABACAC"/><stop offset=".18" stop-color="#BDBDBD"/><stop offset=".729" stop-color="#EDEDED"/><stop offset="1" stop-color="#fff"/></linearGradient><linearGradient id="paint24_linear_4799_63933" x1="16.458" x2="12.989" y1="22.432" y2="19.552" gradientUnits="userSpaceOnUse"><stop stop-color="#9FA0A0"/><stop offset=".169" stop-color="#A5A6A6"/><stop offset=".4" stop-color="#B6B6B6"/><stop offset=".659" stop-color="#D1D1D1"/><stop offset=".941" stop-color="#F6F6F6"/><stop offset="1" stop-color="#fff"/></linearGradient><linearGradient id="paint25_linear_4799_63933" x1="18.227" x2="16.279" y1="17.758" y2="21.483" gradientUnits="userSpaceOnUse"><stop stop-color="#9FA0A0"/><stop offset=".169" stop-color="#A5A6A6"/><stop offset=".4" stop-color="#B6B6B6"/><stop offset=".659" stop-color="#D1D1D1"/><stop offset=".941" stop-color="#F6F6F6"/><stop offset="1" stop-color="#fff"/></linearGradient><clipPath id="clip0_4799_63933"><rect width="32" height="32" fill="#fff"/></clipPath></defs></svg>