<svg xmlns="http://www.w3.org/2000/svg" width="32" height="32" fill="none" viewBox="0 0 32 32"><g clip-path="url(#clip0_4797_63813)"><path fill="#648495" d="M15.856 0L2 8.00032L15.856 32L29.712 8.00032L15.856 0Z"/><path fill="#DCF3FF" d="M15.856 0L2 8.00032H11.2376L15.856 0Z"/><path fill="#E6F8FF" d="M2 8.00037L9.75008 10.5768L11.2376 8.00037H2Z"/><path fill="#9BC5DC" d="M9.75 10.5768L11.2375 8.00037H29.7119L9.75 10.5768Z"/><path fill="#7B9FB1" d="M11.2375 8.00032L15.8559 0L29.7119 8.00032H11.2375Z"/><path fill="#49606D" d="M2 8.00037L9.75008 10.5768L15.856 32L2 8.00037Z"/><path fill="#fff" d="M9.61963 10.5338L15.8559 0L9.91339 10.556L9.75003 10.5768L9.61963 10.5338Z"/></g><defs><clipPath id="clip0_4797_63813"><rect width="32" height="32" fill="#fff"/></clipPath></defs></svg>